<?xml version="1.0" encoding="UTF-8"?>
<svg id="Warstwa_1" data-name="Warstwa 1" xmlns="http://www.w3.org/2000/svg" viewBox="0 0 260.79 260.79">
  <defs>
    <style>
      .cls-1 {
        fill: none;
      }

      .cls-1, .cls-2 {
        stroke-width: 0px;
      }

      .cls-2 {
        fill: #fff;
      }
    </style>
  </defs>
  <path class="cls-1" d="m26.78,0h207.23c14.78,0,26.78,12,26.78,26.78v207.23c0,14.78-12,26.78-26.78,26.78H26.78c-14.78,0-26.78-12-26.78-26.78V26.78C0,12,12,0,26.78,0Z"/>
  <g>
    <g>
      <path class="cls-2" d="m124.51,207.79c-17.38,0-24.16-14.83-25.32-22.67-.55-3.75,2.04-7.23,5.79-7.79,3.73-.54,7.23,2.04,7.78,5.79.29,1.79,2.28,10.96,11.75,10.96s14.24-7.91,14.62-15.75l.13-3.13c.42-10.86,1.15-17.1,12.23-29.47,9.24-10.31,10.31-25.47,8.83-32.59-.06-.3-7.6-30.15-36.33-28.79-23.87,1.15-28.56,29-28.61,29.28-.59,3.74-4.1,6.29-7.85,5.7-3.74-.59-6.29-4.11-5.7-7.85,2.15-13.53,13.58-39.48,41.49-40.82,34.18-1.66,48.16,28.87,50.42,39.68,1.82,8.72,1.65,29.26-12.03,44.55-8.29,9.26-8.4,11.95-8.74,20.85l-.14,3.26c-.81,16.68-12.72,28.79-28.32,28.79Z"/>
      <path class="cls-2" d="m149.5,120.68c-1.78,0-3.37-1.27-3.7-3.08l-.29-1.44c-.08-.41-4.27-16.84-20.01-16.07-13.11.63-15.69,15.93-15.72,16.08-.33,2.06-2.25,3.46-4.31,3.13-2.05-.33-3.46-2.26-3.13-4.31,1.18-7.44,7.46-21.69,22.8-22.43,18.72-.83,26.46,15.87,27.7,21.8l.37,1.86c.38,2.05-.98,4.01-3.02,4.39-.23.04-.46.06-.69.06Z"/>
      <g>
        <path class="cls-2" d="m134.72,124.07c-.06,3.89-3.27,6.99-7.15,6.93-3.89-.06-6.99-3.27-6.93-7.15.06-3.89,3.27-6.99,7.15-6.93,3.89.06,6.99,3.27,6.93,7.15Z"/>
        <path class="cls-2" d="m117.04,136.69c-.06,3.89-3.27,6.99-7.15,6.93-3.89-.06-6.99-3.27-6.93-7.15.06-3.89,3.27-6.99,7.15-6.93,3.89.06,6.99,3.27,6.93,7.15Z"/>
        <path class="cls-2" d="m85.65,159.11c-.06,3.89-3.27,6.99-7.15,6.93-3.89-.06-6.99-3.27-6.93-7.15.06-3.89,3.27-6.99,7.15-6.93,3.89.06,6.99,3.27,6.93,7.15Z"/>
        <path class="cls-2" d="m67.98,171.74c-.06,3.89-3.27,6.99-7.15,6.93-3.89-.06-6.99-3.27-6.93-7.15.06-3.89,3.27-6.99,7.15-6.93,3.89.06,6.99,3.27,6.93,7.15Z"/>
        <path class="cls-2" d="m96.17,159.23l-12.08-16.92c-1.51-2.12-1.02-5.06,1.09-6.57,2.12-1.51,5.06-1.02,6.57,1.09l12.08,16.92c1.51,2.12,1.02,5.06-1.09,6.57-2.12,1.51-5.06,1.02-6.57-1.09Z"/>
      </g>
    </g>
    <g>
      <path class="cls-2" d="m188.42,112.78c-1.87,0-3.42-1.48-3.48-3.37-.49-14.06-7.75-27-19.41-34.6-1.61-1.05-2.07-3.21-1.02-4.83,1.05-1.61,3.22-2.06,4.83-1.02,13.56,8.85,22,23.88,22.57,40.2.07,1.93-1.44,3.54-3.36,3.61-.04,0-.08,0-.12,0Z"/>
      <path class="cls-2" d="m203.41,115.38c-1.87,0-3.42-1.48-3.48-3.37-.75-21.37-11.78-41.04-29.51-52.61-1.61-1.05-2.07-3.21-1.01-4.83,1.05-1.61,3.22-2.07,4.83-1.02,19.63,12.81,31.85,34.57,32.68,58.21.07,1.92-1.44,3.54-3.36,3.61-.04,0-.08,0-.12,0Z"/>
    </g>
  </g>
</svg>