<?xml version="1.0" encoding="UTF-8"?>
<svg id="Warstwa_1" data-name="Warstwa 1" xmlns="http://www.w3.org/2000/svg" viewBox="0 0 260.79 260.74">
  <defs>
    <style>
      .cls-1 {
        fill: none;
      }

      .cls-1, .cls-2 {
        stroke-width: 0px;
      }

      .cls-2 {
        fill: #fff;
      }
    </style>
  </defs>
  <rect class="cls-1" y="-.06" width="260.79" height="260.79" rx="26.78" ry="26.78"/>
  <g>
    <circle class="cls-2" cx="101.92" cy="44.67" r="19.41"/>
    <path class="cls-2" d="m183.55,185.88c-9.8,28.78-37.09,49.54-69.17,49.54-40.27,0-73.05-32.78-73.05-73.08,0-30.87,19.26-57.34,46.4-68l3.08,17.1c-19.19,8.9-32.53,28.38-32.53,50.9,0,30.96,25.17,56.13,56.1,56.13s55.64-24.68,56.1-55.24l13.06,22.64Z"/>
    <path class="cls-2" d="m218.2,195.85l-34.72-60.14c-.91-1.58-2.23-2.79-3.73-3.59-1.87-1.27-4.13-2.01-6.54-2.01h-39.41l-4.1-22.76h31.32c4.59,0,8.35-3.76,8.35-8.35h0c0-4.59-3.76-8.35-8.35-8.35h-34.33l-1.82-10.09c-1.6-8.88-10.17-14.83-19.05-13.23h0c-8.88,1.6-14.83,10.17-13.23,19.05l9.68,53.73c.9,4.99,4,9.05,8.12,11.37,1.9,1.33,4.21,2.11,6.69,2.11h.91c.29,0,.58,0,.87,0h53.19l29.84,51.69c2.59,4.49,8.39,6.04,12.87,3.45h0c4.49-2.59,6.04-8.39,3.45-12.87Z"/>
  </g>
</svg>